<svg xmlns="http://www.w3.org/2000/svg" width="72" height="19" fill="none" viewBox="0 0 72 19"><path fill="#d1d1d1" d="M21.408 5.847h1.742v7.043h-1.742zm2.433 4.384c0-1.742 1.069-2.781 2.718-2.781s2.717 1.039 2.717 2.78c0 1.743-1.045 2.788-2.717 2.788s-2.718-1.016-2.718-2.787m3.687 0c0-.958-.377-1.521-.97-1.521-.591 0-.963.58-.963 1.52 0 .942.366 1.51.964 1.51s.97-.534.97-1.503zm2.404 3.002h1.673a.9.9 0 0 0 .94.522c.662 0 1.01-.36 1.01-.882v-.976h-.034a1.65 1.65 0 0 1-1.585.953c-1.272 0-2.114-.97-2.114-2.636s.801-2.718 2.137-2.718a1.67 1.67 0 0 1 1.602 1.022v-.97h1.742v5.284c0 1.272-1.12 2.061-2.775 2.061-1.539 0-2.497-.69-2.596-1.654zm3.63-3.008c0-.848-.39-1.382-1.005-1.382-.616 0-.993.529-.993 1.382 0 .854.372 1.336.993 1.336s1.004-.47 1.004-1.33zm2.397 0c0-1.742 1.069-2.781 2.718-2.781s2.723 1.04 2.723 2.781-1.045 2.787-2.723 2.787-2.718-1.01-2.718-2.781zm3.688 0c0-.958-.378-1.521-.97-1.521-.593 0-.935.586-.935 1.533 0 .946.366 1.51.958 1.51s.947-.54.947-1.51zm2.415-3.942a.888.888 0 1 1 .906.865.85.85 0 0 1-.906-.854zm0 1.277h1.742v5.33h-1.742zm8.065 2.665c0 1.742-.772 2.735-2.096 2.735a1.66 1.66 0 0 1-1.626-.987h-.035v2.624h-1.742V7.548h1.742v.953h.035a1.67 1.67 0 0 1 1.614-1.028c1.336.023 2.131 1.022 2.131 2.764zm-1.742 0c0-.848-.389-1.388-.998-1.388-.61 0-1 .546-1.005 1.388-.006.842.395 1.382 1.005 1.382s.998-.528.998-1.37zm4.732-2.787c1.446 0 2.323.685 2.364 1.783h-1.586c0-.378-.313-.616-.795-.616s-.697.186-.697.459.192.36.58.441l1.116.227c1.062.226 1.515.656 1.515 1.463 0 1.103-1.004 1.811-2.485 1.811s-2.45-.708-2.526-1.794h1.678c.053.395.366.627.877.627s.743-.168.743-.447c0-.278-.162-.337-.58-.424l-1.005-.214c-1.04-.215-1.585-.767-1.585-1.58.012-1.045.946-1.724 2.386-1.724zm8.31 5.44h-1.679v-.992h-.034a1.516 1.516 0 0 1-1.545 1.109 1.853 1.853 0 0 1-1.95-2.003V7.548h1.741v3.043c0 .633.325.97.865.97a.89.89 0 0 0 .852-.63.9.9 0 0 0 .03-.375V7.548h1.743zm.841-5.33h1.684v1.028h.035a1.545 1.545 0 0 1 1.516-1.126 1.39 1.39 0 0 1 1.48 1.16h.035a1.635 1.635 0 0 1 1.638-1.16 1.69 1.69 0 0 1 1.741 1.811v3.63h-1.742V9.725c0-.58-.26-.848-.749-.848a.76.76 0 0 0-.76.86v3.152H65.49V9.703c0-.535-.261-.825-.737-.825a.776.776 0 0 0-.773.871v3.141H62.24zM16.537 6.166a7.7 7.7 0 0 0-1.161-1.87A7.856 7.856 0 1 0 4.529 15.516a7.6 7.6 0 0 0 1.858 1.062c.934.383 1.934.58 2.944.58a7.873 7.873 0 0 0 7.856-7.867 7.8 7.8 0 0 0-.65-3.124M9.325 3.013c.907 0 1.803.199 2.625.581a2.6 2.6 0 0 1-.627.18A3.33 3.33 0 0 0 8.506 6.59 1.74 1.74 0 0 1 6.933 8.13a3.33 3.33 0 0 0-2.816 2.816 1.7 1.7 0 0 1-.459 1.01 6.27 6.27 0 0 1 5.673-8.953zM4.523 13.355c.07-.064.14-.122.21-.192.516-.5.847-1.162.94-1.875.037-.402.216-.776.505-1.057a1.64 1.64 0 0 1 1.051-.5 3.33 3.33 0 0 0 2.816-2.816c.025-.42.205-.814.505-1.109a1.67 1.67 0 0 1 1.063-.482 3.2 3.2 0 0 0 1.742-.83 6.1 6.1 0 0 1 1.37 1.614.5.5 0 0 1-.075.082c-.277.291-.65.473-1.051.51a3.315 3.315 0 0 0-2.816 2.817 1.74 1.74 0 0 1-1.562 1.556 3.345 3.345 0 0 0-2.834 2.816 1.8 1.8 0 0 1-.284.795 6.3 6.3 0 0 1-1.58-1.33m4.802 2.241c-.589 0-1.175-.082-1.742-.244.194-.361.32-.755.372-1.161a1.74 1.74 0 0 1 1.556-1.556 3.33 3.33 0 0 0 2.822-2.816 1.74 1.74 0 0 1 1.556-1.557 3.3 3.3 0 0 0 1.487-.58 6.282 6.282 0 0 1-6.05 7.885z"/></svg>