<svg xmlns="http://www.w3.org/2000/svg" width="72" height="19" fill="none" viewBox="0 0 72 19"><path fill="#d1d1d1" d="M8.302 3.573V1.289h-7.2v15.69h7.2v-2.284a5.561 5.561 0 1 1 0-11.122M8.302 3.572v11.123a5.561 5.561 0 0 0 0-11.123M17.903 4.97h1.612v7.765h-1.612zM20.418 10.075a2.82 2.82 0 1 1 2.805 2.82 2.78 2.78 0 0 1-2.805-2.82m4.04 0a1.224 1.224 0 1 0-1.225 1.257 1.19 1.19 0 0 0 1.215-1.257z"/><path fill="#d1d1d1" d="M32.405 7.415v5.056c0 1.784-1.397 2.542-2.81 2.542a2.69 2.69 0 0 1-2.52-1.29l1.36-.784a1.22 1.22 0 0 0 1.214.672 1.076 1.076 0 0 0 1.204-1.14v-.489a1.9 1.9 0 0 1-1.553.688 2.686 2.686 0 0 1 0-5.373 1.9 1.9 0 0 1 1.553.688v-.538zm-1.552 2.552a1.29 1.29 0 1 0-1.29 1.236 1.205 1.205 0 0 0 1.29-1.236M33.313 10.075a2.82 2.82 0 1 1 2.816 2.82 2.79 2.79 0 0 1-2.816-2.82m4.041 0a1.225 1.225 0 1 0-1.22 1.257 1.19 1.19 0 0 0 1.215-1.257zM39.691 5.992a.956.956 0 1 1 .957.956.967.967 0 0 1-.957-.956m.156 1.423h1.612v5.32h-1.612zM48.358 10.075a2.686 2.686 0 0 1-2.563 2.821 2 2 0 0 1-1.612-.65v2.627h-1.612V7.417h1.612v.5a2 2 0 0 1 1.612-.645 2.686 2.686 0 0 1 2.563 2.804m-1.612 0a1.269 1.269 0 1 0-1.262 1.3 1.213 1.213 0 0 0 1.262-1.3M53.264 11.139c0 1.225-1.075 1.746-2.214 1.746a2.33 2.33 0 0 1-2.289-1.268l1.386-.785a.87.87 0 0 0 .898.629c.381 0 .575-.118.575-.333 0-.586-2.617-.274-2.617-2.117 0-1.16.978-1.741 2.085-1.741a2.33 2.33 0 0 1 2.106 1.134l-1.386.73a.78.78 0 0 0-.715-.467c-.28 0-.446.107-.446.295 0 .613 2.617.21 2.617 2.177M59.105 7.414v5.32h-1.612v-.5a1.84 1.84 0 0 1-1.516.66c-1.074 0-1.993-.768-1.993-2.202V7.414h1.612v3.036a.88.88 0 0 0 .241.698.89.89 0 0 0 .688.269c.58 0 .989-.344.989-1.075V7.414zM68.239 9.467v3.267h-1.612V9.606c0-.537-.253-.87-.763-.87s-.833.37-.833 1v2.998H63.42V9.606c0-.537-.252-.87-.763-.87-.51 0-.833.37-.833 1v2.998h-1.612v-5.32h1.612v.49a1.64 1.64 0 0 1 1.43-.635 1.57 1.57 0 0 1 1.391.699 1.75 1.75 0 0 1 1.542-.699c1.258 0 2.053.87 2.053 2.198M69.593 7.382a1.182 1.182 0 1 0 0-2.364 1.182 1.182 0 0 0 0 2.364"/></svg>