<svg xmlns="http://www.w3.org/2000/svg" width="72" height="16" fill="none" viewBox="0 0 72 16"><path fill="#d1d1d1" d="M11.53 6.876a1.88 1.88 0 0 0-.538 1.506l-.01-.01a2.232 2.232 0 0 1-2.414 2.415l.01.01a1.891 1.891 0 1 0 1.708 1.706l.01.009a2.234 2.234 0 0 1 2.414-2.414l-.01-.01a1.889 1.889 0 1 0-1.169-3.212z"/><path fill="#d1d1d1" d="m7.736 9.584-.01-.01a1.868 1.868 0 0 0 2.045-2.043l.01.009a2.235 2.235 0 0 1 2.414-2.414l-.01-.01A1.891 1.891 0 1 0 10.48 3.41l-.01-.01a2.234 2.234 0 0 1-2.413 2.414l.009.01A1.868 1.868 0 0 0 6.02 7.868l-.01-.01a2.235 2.235 0 0 1-2.414 2.415l.01.01a1.891 1.891 0 1 0 1.706 1.706l.01.009a2.234 2.234 0 0 1 2.414-2.414"/><path fill="#d1d1d1" d="M4.29 8.552a1.88 1.88 0 0 0 .537-1.507l.01.01A2.234 2.234 0 0 1 7.25 4.64l-.01-.009a1.891 1.891 0 1 0-1.706-1.706l-.01-.01A2.234 2.234 0 0 1 3.113 5.33l.01.009A1.888 1.888 0 1 0 4.29 8.552M20.22 3.422h1.528v7.433H20.22zM22.613 8.31a2.699 2.699 0 1 1 2.698 2.688 2.67 2.67 0 0 1-2.698-2.687m3.87 0a1.172 1.172 0 1 0-1.172 1.205 1.14 1.14 0 0 0 1.171-1.204M34.097 5.765v4.834c0 1.71-1.334 2.434-2.688 2.434a2.6 2.6 0 0 1-2.413-1.235l1.303-.753a1.16 1.16 0 0 0 1.16.641 1.015 1.015 0 0 0 1.151-1.09v-.464a1.81 1.81 0 0 1-1.486.661 2.587 2.587 0 0 1 0-5.172 1.81 1.81 0 0 1 1.486.662v-.52zm-1.486 2.443a1.234 1.234 0 1 0-1.232 1.183 1.15 1.15 0 0 0 1.232-1.183M34.962 8.31a2.698 2.698 0 1 1 2.699 2.688 2.67 2.67 0 0 1-2.699-2.687m3.87 0a1.172 1.172 0 1 0-1.171 1.205 1.14 1.14 0 0 0 1.17-1.204M41.071 4.4a.916.916 0 1 1 .917.917.926.926 0 0 1-.917-.916m.155 1.365h1.528v5.092h-1.53zM49.349 8.31a2.556 2.556 0 0 1-2.434 2.688 1.91 1.91 0 0 1-1.517-.621v2.515h-1.527V5.764h1.527v.479a1.91 1.91 0 0 1 1.517-.621A2.556 2.556 0 0 1 49.35 8.31m-1.528 0a1.212 1.212 0 1 0-1.21 1.242 1.162 1.162 0 0 0 1.21-1.242M54.062 9.328c0 1.171-1.017 1.67-2.117 1.67a2.23 2.23 0 0 1-2.19-1.212l1.324-.753a.84.84 0 0 0 .864.6c.366 0 .55-.111.55-.315 0-.56-2.505-.264-2.505-2.026 0-1.11.937-1.67 1.995-1.67a2.23 2.23 0 0 1 1.986 1.09l-1.304.702a.74.74 0 0 0-.681-.448c-.265 0-.428.103-.428.285.002.58 2.506.193 2.506 2.077M59.642 5.764v5.091h-1.528v-.479a1.74 1.74 0 0 1-1.455.622c-1.029 0-1.903-.733-1.903-2.109V5.764h1.527v2.901a.836.836 0 0 0 .53.87.8.8 0 0 0 .356.056c.56 0 .947-.326.947-1.049V5.765zM68.4 7.73v3.126h-1.527V7.862c0-.509-.245-.834-.733-.834-.51 0-.795.356-.795.957v2.871h-1.527V7.862c0-.509-.244-.834-.733-.834-.51 0-.794.356-.794.957v2.871h-1.528V5.765h1.528v.468a1.56 1.56 0 0 1 1.364-.61 1.52 1.52 0 0 1 1.334.67 1.68 1.68 0 0 1 1.476-.67c1.17 0 1.935.834 1.935 2.107M69.692 5.734a1.134 1.134 0 1 0 0-2.267 1.134 1.134 0 0 0 0 2.267"/></svg>