<svg xmlns="http://www.w3.org/2000/svg" width="79" height="20" fill="none" viewBox="0 0 79 20"><g fill="#d1d1d1" clip-path="url(#a)"><path d="M.454 14.832V4.943l4.85 2.747v4.422l3.88 2.225 3.88-2.225V7.69l4.851-2.747v9.889l-8.73 4.944z"/><path fill-rule="evenodd" d="M2.879 6.318.454 4.944 9.184 0l8.731 4.944-2.425 1.374v7.279l-6.305 3.708-6.306-3.708zm12.349.148-2.163 1.225v-.028L9.185 5.44l-3.88 2.224v.028L3.141 6.466v6.978l6.043 3.554 6.042-3.554z" clip-rule="evenodd"/><path d="M22.564 14.05V5.744h1.537v6.882h3.725v1.424zM31.144 14.218q-.861 0-1.549-.356a2.64 2.64 0 0 1-1.082-1.033q-.396-.675-.396-1.625v-.19q0-.95.396-1.626a2.64 2.64 0 0 1 1.082-1.032A3.3 3.3 0 0 1 31.144 8q.861 0 1.548.356a2.64 2.64 0 0 1 1.082 1.032q.396.677.396 1.626v.19q0 .95-.396 1.625a2.64 2.64 0 0 1-1.082 1.033 3.3 3.3 0 0 1-1.549.356m0-1.33q.675 0 1.117-.438.442-.45.442-1.282v-.118q0-.83-.442-1.27-.43-.45-1.118-.451-.675 0-1.117.45-.442.44-.442 1.27v.12q0 .83.442 1.28.442.44 1.117.44M34.72 11.133v-.19q0-.925.362-1.578.36-.665.954-1.009A2.55 2.55 0 0 1 37.352 8q.791 0 1.199.285.407.284.593.593h.21v-.712h1.444v6.93q0 .605-.35.961-.35.368-.93.368h-3.866V15.12h3.353q.326-.001.326-.356v-1.531h-.21a2 2 0 0 1-.326.391q-.21.19-.558.32-.35.131-.885.131-.71 0-1.316-.344a2.63 2.63 0 0 1-.954-1.008q-.36-.665-.361-1.59m3.05 1.637q.676 0 1.13-.439.454-.44.454-1.234v-.119q0-.807-.454-1.234-.442-.439-1.13-.439-.675 0-1.128.44-.454.426-.454 1.233v.12q0 .794.454 1.233t1.129.44M44.647 14.218q-.861 0-1.548-.356a2.64 2.64 0 0 1-1.083-1.033q-.396-.675-.395-1.625v-.19q0-.95.395-1.626A2.64 2.64 0 0 1 43.1 8.356 3.3 3.3 0 0 1 44.647 8q.861 0 1.549.356a2.64 2.64 0 0 1 1.082 1.032q.396.677.396 1.626v.19q0 .95-.396 1.625a2.64 2.64 0 0 1-1.082 1.033 3.3 3.3 0 0 1-1.549.356m0-1.33q.675 0 1.118-.438.442-.45.442-1.282v-.118q0-.83-.442-1.27-.43-.45-1.118-.451-.675 0-1.117.45-.443.44-.443 1.27v.12q0 .83.443 1.28.442.44 1.117.44M48.504 14.05V8.166h1.467v5.886zm.733-6.573a.95.95 0 0 1-.675-.261q-.267-.261-.268-.689 0-.426.268-.688a.95.95 0 0 1 .675-.26q.408 0 .675.26.268.262.268.688 0 .428-.267.689a.93.93 0 0 1-.676.26M51.072 16.425V8.166h1.444v.712h.21q.197-.344.617-.605Q53.76 8 54.54 8q.7 0 1.292.356.594.345.955 1.02.36.677.361 1.638v.19q0 .96-.361 1.637-.36.676-.955 1.033a2.53 2.53 0 0 1-1.292.344 2.6 2.6 0 0 1-.885-.13 1.7 1.7 0 0 1-.57-.31 2.2 2.2 0 0 1-.337-.403h-.21v3.05zm3.027-3.513q.686 0 1.13-.439.453-.45.453-1.305v-.118q0-.855-.454-1.294-.453-.45-1.13-.45-.675 0-1.128.45-.454.44-.454 1.294v.118q0 .855.454 1.306.453.438 1.129.438M60.37 14.218q-1.13 0-1.851-.499-.72-.498-.873-1.423l1.35-.356q.082.414.268.652.198.237.478.344.29.095.628.095.512 0 .757-.178a.57.57 0 0 0 .244-.463.46.46 0 0 0-.233-.415q-.232-.154-.745-.25l-.326-.058a6 6 0 0 1-1.106-.32 2.1 2.1 0 0 1-.803-.582q-.302-.368-.303-.95 0-.878.63-1.34Q59.112 8 60.136 8q.967 0 1.606.439t.839 1.151l-1.362.427q-.093-.45-.384-.64-.28-.19-.699-.19t-.64.154a.45.45 0 0 0-.221.403q0 .284.233.428.232.13.628.201l.326.06q.653.118 1.176.32.535.19.838.558.315.355.315.973 0 .925-.664 1.435-.652.5-1.758.499M65.753 14.147q-.675 0-1.187-.309a2.2 2.2 0 0 1-.78-.878 2.8 2.8 0 0 1-.28-1.282V8.166h1.467v3.394q0 .665.315.996.324.333.92.333.674 0 1.047-.451.372-.463.372-1.282v-2.99h1.467v5.886H67.65v-.772h-.209q-.14.297-.524.582-.384.284-1.164.284M70.203 14.05V8.166h1.443v.641h.21q.15-.297.5-.51.35-.226.92-.226.615 0 .99.25.372.237.57.628h.209q.198-.379.56-.629.36-.249 1.023-.249.536 0 .967.238.441.225.698.7.267.462.268 1.175v3.868h-1.467v-3.762q0-.486-.244-.724-.245-.249-.687-.249-.501 0-.78.332-.268.321-.268.926v3.477h-1.467v-3.762q0-.486-.244-.724-.244-.249-.687-.249-.501 0-.78.332-.268.321-.268.926v3.477z"/></g><defs><clipPath id="a"><path fill="#fff" d="M0 0h79v20H0z"/></clipPath></defs></svg>