<svg xmlns="http://www.w3.org/2000/svg" width="72" height="20" fill="none" viewBox="0 0 72 20"><path fill="#d1d1d1" d="M16.647 6.682c.197 0 .262.07.262.261v4.32h2.22c.191 0 .262.071.262.262v.382c0 .191-.071.262-.262.262h-2.924c-.19 0-.267-.071-.267-.262V6.943c0-.19.077-.261.267-.261zM21.327 8.585c0-1.26.797-2.019 2.182-2.019 1.386 0 2.182.759 2.182 2.019v1.68c0 1.26-.802 2.018-2.182 2.018s-2.182-.758-2.182-2.018zm3.447 0c0-.71-.441-1.091-1.238-1.091s-1.232.387-1.232 1.09v1.691c0 .715.436 1.091 1.232 1.091.797 0 1.238-.392 1.238-1.09zM32.187 9.163c.213 0 .262.071.262.262v1.036a1.64 1.64 0 0 1-.578 1.288 2.38 2.38 0 0 1-1.636.512c-1.413 0-2.182-.758-2.182-2.018v-1.69c0-1.244.796-2.008 2.182-2.008 1.09 0 1.8.43 2.1 1.293a.23.23 0 0 1-.066.293.24.24 0 0 1-.098.045l-.425.147c-.186.066-.262.027-.328-.164a1.124 1.124 0 0 0-1.183-.709c-.802 0-1.239.388-1.239 1.091v1.735c0 .714.442 1.09 1.239 1.09.796 0 1.287-.365 1.287-.9v-.403h-1.184c-.196 0-.267-.076-.267-.267v-.371c0-.191.07-.262.267-.262zM34.702 8.585c0-1.26.796-2.019 2.182-2.019s2.182.759 2.182 2.019v1.68c0 1.26-.802 2.018-2.182 2.018s-2.182-.758-2.182-2.018zm3.442 0c0-.71-.442-1.091-1.233-1.091s-1.238.387-1.238 1.09v1.691c0 .715.442 1.091 1.238 1.091s1.233-.392 1.233-1.09zM41.635 6.84c0-.12.038-.158.158-.158h.25c.12 0 .148.038.148.158v5.17c0 .12 0 .159-.147.159h-.251c-.12 0-.158-.038-.158-.158zM47.16 6.682a1.713 1.713 0 1 1 0 3.425h-1.636v1.904c0 .12-.028.158-.142.158h-.256c-.115 0-.159-.038-.159-.158V6.84c0-.12.044-.158.159-.158zm-.05 2.885a1.19 1.19 0 0 0 0-2.378h-1.635v2.378zM53.133 6.572a1.97 1.97 0 0 1 2.029 1.19c.044.087 0 .158-.087.201l-.24.11c-.099.038-.137.032-.197-.071a1.48 1.48 0 0 0-1.505-.895c-.922 0-1.424.365-1.424 1.02a.83.83 0 0 0 .693.84q.441.144.905.175c.373.02.74.095 1.091.223a1.23 1.23 0 0 1 .851 1.293c0 1.02-.742 1.636-2.105 1.636a1.97 1.97 0 0 1-2.09-1.325.147.147 0 0 1 .093-.207l.24-.088a.15.15 0 0 1 .167.04.2.2 0 0 1 .03.053 1.56 1.56 0 0 0 1.56.982c1.03 0 1.538-.36 1.538-1.091a.81.81 0 0 0-.638-.835 3.8 3.8 0 0 0-.868-.152l-.589-.077a5 5 0 0 1-.545-.147 1.4 1.4 0 0 1-.486-.256 1.33 1.33 0 0 1-.436-1.042c.038-.955.753-1.577 2.013-1.577M58.19 10.304a1.515 1.515 0 0 0 2.552 1.012c.282-.264.45-.627.474-1.013V6.84c0-.12.038-.158.158-.158h.251c.12 0 .159.038.159.158v3.458c0 1.238-.731 1.986-2.079 1.986-1.347 0-2.078-.748-2.078-1.986V6.84c0-.12.038-.158.153-.158h.256c.115 0 .153.038.153.158zM69.31 6.683c.12 0 .16.038.16.158v5.17c0 .12-.04.159-.16.159h-.228c-.115 0-.153-.038-.153-.158V8.864q0-.687.093-1.369h-.033q-.257.623-.594 1.206l-1.173 2.067a.19.19 0 0 1-.18.12h-.153a.2.2 0 0 1-.185-.12l-1.19-2.09a9 9 0 0 1-.545-1.188h-.033q.084.688.088 1.38v3.142c0 .12-.038.158-.159.158h-.212c-.12 0-.158-.038-.158-.158V6.84c0-.12.038-.158.158-.158h.196a.22.22 0 0 1 .218.125l1.91 3.393 1.898-3.36c.06-.115.092-.131.212-.131zM6.944 11.34v3.944a.57.57 0 1 1-1.14 0v-3.938c.158.116.349.18.545.185a.94.94 0 0 0 .595-.19m4.854-1.14a.545.545 0 0 0-.545.546v.687a.57.57 0 1 0 1.14 0v-.66a.544.544 0 0 0-.595-.573m-7.233 2.635a1 1 0 0 1-.545-.186v3.955a.573.573 0 1 0 1.145 0v-3.927a1 1 0 0 1-.6.158m5.455-3.818a.546.546 0 0 0-.573.545V12.6a.573.573 0 1 0 1.146 0v-3a.545.545 0 0 0-.6-.572zm-1.81 1.167a1 1 0 0 1-.574-.185v3.965a.573.573 0 1 0 1.146 0v-3.96a.97.97 0 0 1-.6.19zm-4.883 3.038V2.144a.513.513 0 0 0-.512-.507h-.12a.513.513 0 0 0-.513.507v11.078a.513.513 0 0 0 .513.513h.12a.513.513 0 0 0 .512-.513m1.298-.807h-.12a.513.513 0 0 1-.512-.513V3.464a.513.513 0 0 1 .512-.507h.12a.513.513 0 0 1 .513.507v8.45a.51.51 0 0 1-.513.512zm1.806-1.298h-.126a.507.507 0 0 1-.507-.508V4.773a.51.51 0 0 1 .507-.513h.126a.513.513 0 0 1 .507.513v5.836a.507.507 0 0 1-.507.508M8.236 9.78h-.114a.513.513 0 0 1-.513-.507V6.131a.51.51 0 0 1 .513-.545h.12a.513.513 0 0 1 .513.513v3.163a.51.51 0 0 1-.513.518zm1.811-1.172h-.12a.513.513 0 0 1-.512-.513v-.813a.513.513 0 0 1 .512-.507h.12a.513.513 0 0 1 .513.507v.813a.513.513 0 0 1-.507.513z"/></svg>