<svg xmlns="http://www.w3.org/2000/svg" width="72" height="18" fill="none" viewBox="0 0 72 18"><g fill="#d1d1d1" clip-path="url(#a)"><path d="M21.668 12.506h5.092v-1.534h-3.282V5.195h-1.81zM29.777 11.483c-.726 0-1.104-.634-1.104-1.585s.378-1.595 1.104-1.595 1.114.644 1.114 1.595c0 .95-.388 1.585-1.114 1.585m.01 1.186c1.687 0 2.792-1.197 2.792-2.771 0-1.575-1.105-2.771-2.792-2.771-1.677 0-2.801 1.196-2.801 2.77 0 1.576 1.124 2.772 2.801 2.772M35.499 14.316c.777 0 1.462-.174 1.922-.583.42-.379.695-.951.695-1.739V7.271h-1.595v.562h-.02c-.307-.44-.777-.716-1.472-.716-1.299 0-2.199 1.084-2.199 2.618 0 1.605 1.094 2.484 2.27 2.484a1.67 1.67 0 0 0 1.34-.603h.04v.522c0 .633-.296 1.002-1.002 1.002-.552 0-.828-.236-.92-.512h-1.615c.163 1.094 1.114 1.688 2.556 1.688m-.01-3.334c-.624 0-1.033-.511-1.033-1.298 0-.798.409-1.31 1.033-1.31.695 0 1.063.594 1.063 1.3 0 .736-.337 1.308-1.063 1.308M41.396 11.483c-.726 0-1.104-.634-1.104-1.585s.378-1.595 1.104-1.595 1.115.644 1.115 1.595c0 .95-.389 1.585-1.115 1.585m.01 1.186c1.687 0 2.792-1.197 2.792-2.771 0-1.575-1.105-2.771-2.792-2.771-1.676 0-2.801 1.196-2.801 2.77 0 1.576 1.125 2.772 2.801 2.772M44.684 12.506h1.667V7.271h-1.667zm0-5.961h1.667v-1.35h-1.667zM47.074 14.234h1.667v-2.27h.02c.328.44.808.705 1.483.705 1.37 0 2.28-1.084 2.28-2.78 0-1.575-.849-2.772-2.24-2.772-.715 0-1.226.317-1.584.787h-.03v-.633h-1.596zm2.74-2.853c-.715 0-1.124-.583-1.124-1.432 0-.848.368-1.492 1.094-1.492.716 0 1.053.593 1.053 1.492 0 .89-.389 1.432-1.022 1.432M55.238 12.67c1.37 0 2.382-.594 2.382-1.739 0-1.34-1.084-1.575-2.004-1.728-.665-.123-1.258-.174-1.258-.542 0-.327.317-.48.726-.48.46 0 .777.143.839.613h1.533c-.081-1.033-.879-1.677-2.362-1.677-1.237 0-2.26.573-2.26 1.677 0 1.227.972 1.472 1.882 1.626.695.123 1.33.174 1.33.644 0 .337-.318.521-.819.521-.552 0-.9-.255-.96-.777h-1.575c.05 1.156 1.012 1.861 2.546 1.861M59.884 12.658c.726 0 1.186-.286 1.564-.797h.031v.644h1.595V7.27h-1.667v2.924c0 .624-.347 1.053-.92 1.053-.532 0-.787-.317-.787-.89V7.27h-1.657v3.435c0 1.166.634 1.953 1.84 1.953M63.799 12.506h1.667V9.57c0-.624.306-1.063.828-1.063.5 0 .736.327.736.89v3.108h1.666V9.57c0-.624.297-1.063.829-1.063.5 0 .736.327.736.89v3.108h1.667V9.1c0-1.176-.593-1.984-1.78-1.984-.674 0-1.237.286-1.646.92h-.02c-.266-.562-.787-.92-1.473-.92-.756 0-1.257.358-1.584.9h-.031v-.746h-1.595z"/><path fill-rule="evenodd" d="M8.812.41a8.687 8.687 0 1 1 0 17.375 8.687 8.687 0 0 1 0-17.375m8.354 8.688A8.354 8.354 0 0 0 7.714.815q.348-.03.705-.03a7.983 7.983 0 1 1-7.953 8.68 8.354 8.354 0 0 0 16.7-.367m-1.098-.33a7.65 7.65 0 0 0-8.661-7.584q.306-.026.618-.026A7.278 7.278 0 1 1 .776 9.086a7.65 7.65 0 0 0 15.292-.319M8.025 1.491a6.944 6.944 0 1 1-6.94 7.21 6.573 6.573 0 1 0 5.99-7.146q.466-.064.95-.064m5.846 6.614a6.24 6.24 0 0 0-7.097-6.181q.23-.018.464-.018a5.868 5.868 0 1 1-5.841 6.432 6.24 6.24 0 0 0 12.474-.233M7.238 2.24a5.534 5.534 0 1 1-5.532 5.715 5.164 5.164 0 1 0 4.75-5.66q.383-.055.782-.055m4.436 5.204a4.83 4.83 0 0 0-5.546-4.777q.16-.012.323-.012a4.458 4.458 0 1 1-4.434 4.917 4.83 4.83 0 0 0 9.657-.128M6.451 2.989A4.124 4.124 0 1 1 2.328 7.2a3.754 3.754 0 1 0 3.494-4.163q.307-.048.63-.048m3.026 3.793a3.42 3.42 0 0 0-3.976-3.374q.08-.005.163-.005a3.048 3.048 0 1 1-3.026 3.423 3.42 3.42 0 0 0 6.84-.044M5.664 3.737A2.715 2.715 0 1 1 2.949 6.44 2.344 2.344 0 1 0 5.183 3.78q.235-.042.48-.042M7.28 6.12a2.01 2.01 0 1 0-4.02 0 2.01 2.01 0 0 0 4.02 0" clip-rule="evenodd"/></g><defs><clipPath id="a"><path fill="#fff" d="M0 0h72v17.893H0z"/></clipPath></defs></svg>