<svg xmlns="http://www.w3.org/2000/svg" width="70" height="70" fill="none" viewBox="0 0 70 70"><mask id="a" width="69" height="45" x="1" y="13" maskUnits="userSpaceOnUse" style="mask-type:luminance"><path fill="#fff" d="M1 13h69v44.849H1z"/></mask><g mask="url(#a)"><path fill="url(#b)" d="M20.863 36.083c-3.392 0-6.157 2.408-6.157 5.365s2.76 5.367 6.157 5.367 6.157-2.407 6.157-5.367-2.761-5.365-6.157-5.365m0 .889c2.634 0 4.82 1.652 5.203 3.805-.193 2.315-2.453 4.148-5.203 4.148s-5.016-1.833-5.203-4.148c.39-2.153 2.57-3.805 5.203-3.805m0 8.955c-2.42 0-4.462-1.399-5.074-3.293.926 1.62 2.853 2.733 5.074 2.733s4.148-1.116 5.074-2.733c-.612 1.894-2.655 3.293-5.074 3.293m28.678-9.844c-3.392 0-6.156 2.408-6.156 5.365s2.759 5.367 6.156 5.367c3.399 0 6.157-2.407 6.157-5.367s-2.766-5.365-6.157-5.365m0 .889c2.634 0 4.821 1.652 5.204 3.805-.194 2.315-2.453 4.148-5.204 4.148-2.749 0-5.016-1.833-5.203-4.148.383-2.153 2.57-3.805 5.203-3.805m0 8.955c-2.419 0-4.462-1.399-5.072-3.293.925 1.62 2.852 2.733 5.072 2.733 2.222 0 4.147-1.116 5.074-2.733-.613 1.894-2.654 3.293-5.074 3.293M69.988 16.53v-.237a.4.4 0 0 0-.075-.261c-.572-2.893-3.064-2.705-3.092-2.703a.34.34 0 0 0-.17.062.34.34 0 0 0-.117.138l-.753 1.571a4.683 4.683 0 0 0-2.857-1.043H7.655a3.67 3.67 0 0 0-2.294.882l-.815-1.701a.35.35 0 0 0-.118-.14.35.35 0 0 0-.171-.063c-.027 0-2.647-.198-3.129 2.933a.44.44 0 0 0-.127.325l.89 25.17q.002.067.024.13l4.734 13.725a.44.44 0 0 0 .18.228q.273.663.812 1.139c.647.565 1.523.849 2.613.849q.397 0 .791-.048a.36.36 0 0 0 .231-.12.36.36 0 0 0 .086-.247l-.16-3.643H25.83a.43.43 0 0 0 .233-.066.43.43 0 0 0 .164-.178l3.822-7.636h10.455a.4.4 0 0 0 .077 0l3.825 7.641q.058.111.165.177t.233.067h15.084l-.168 3.939a.35.35 0 0 0 .084.246.36.36 0 0 0 .23.122q.395.045.791.046c1.09 0 1.968-.284 2.613-.847a3.27 3.27 0 0 0 1.063-2.122l4.56-13.258a.4.4 0 0 0 .026-.13l.875-24.799a.3.3 0 0 0 .027-.148M7.67 14.937h55.263q.683.014 1.315.272.632.255 1.132.72l-.63 1.32H6.474l-.714-1.48q.381-.381.876-.594.496-.214 1.035-.229zm53.458 9.953-.132 3.046h-.792a62 62 0 0 0-.456-7.655.22.22 0 0 0-.18-.188c-12.283-2.13-21.206-.016-21.289 0a.21.21 0 0 0-.161.157q-.26 1.088-.359 2.203h-4.366c-.114-1.345-.228-2.167-.228-2.177a.225.225 0 0 0-.182-.188c-12.281-2.13-21.207-.019-21.29 0a.21.21 0 0 0-.16.157c-.028.1-.664 2.47-.557 7.682h-.883L9.95 24.59a.4.4 0 0 0-.035-.137l-3.108-6.488h57.604l-3.249 6.789a.4.4 0 0 0-.034.136m-13.064-2.233a.44.44 0 0 0-.16-.144.45.45 0 0 0-.21-.055h-9.496q.098-.987.308-1.958c1.14-.25 9.517-1.926 20.813 0q.436 3.704.44 7.434H46.954v-2.129l1.14-2.732a.43.43 0 0 0-.029-.416m-25.539.418 1.14 2.733v2.13H11.422c-.094-4.485.38-6.88.508-7.436 1.14-.25 9.518-1.926 20.817 0 .036.296.118.986.2 1.957H22.94a.46.46 0 0 0-.295.12.5.5 0 0 0-.119.179.45.45 0 0 0 .003.317zM3.996 13.74l.86 1.8a.45.45 0 0 0 .228.481l.83 1.735 3.33 6.947.138 3.233H6.93a.45.45 0 0 0-.315.138.45.45 0 0 0-.13.317v5.625q.005.15.099.267.093.117.239.156 1.472.417 2.804 1.17l.438 10.065a6.4 6.4 0 0 1-2.737.547.44.44 0 0 0-.367.166L6.1 25.332a.4.4 0 0 0-.034-.14l-4.172-8.795v-.132a.4.4 0 0 0-.054-.196c.315-2.018 1.653-2.293 2.16-2.323zM10.93 45.16l-.39-8.986c1.957 1.4 2.812 3.133 2.543 5.155-.26 1.974-1.138 3.144-2.15 3.847zm-8.973-26.97 3.435 7.24 1.081 26.664-3.697-10.73zm8.68 38.618c-1.091.068-1.939-.15-2.509-.654a2.3 2.3 0 0 1-.62-.861.45.45 0 0 0 0-.264l-.206-.595-.038-.971h3.247zm19.856-12.107.328-.656a.3.3 0 0 0 .032-.08l.01-.04h8.895l.024.063q.01.03.023.057l.329.656zm.795-1.664a4.1 4.1 0 0 1 2.567-1.89 4 4 0 0 1 1.082-.112c1.569-.039 2.855.437 3.822 1.423q.263.27.483.579zm9.329.632c-.146-.382-1.505-3.63-5.678-3.522-3.054 0-4.346 2.163-4.77 3.126a3.577 3.577 0 0 0-.157.408l-4.458 8.898H7.744v-5.485a7.7 7.7 0 0 0 2.894-.736.4.4 0 0 0 .167-.08c1.423-.744 2.814-2.15 3.17-4.815.426-3.188-1.626-5.237-3.605-6.439a.4.4 0 0 0-.155-.094 14 14 0 0 0-2.83-1.259v-4.847h16.75a.45.45 0 0 0 .322-.134.44.44 0 0 0 .134-.322v-2.653a.5.5 0 0 0-.034-.173l-.925-2.197h23.392l-.926 2.197a.5.5 0 0 0-.034.173v2.665a.45.45 0 0 0 .134.322.45.45 0 0 0 .322.133h14.491q.043.09.125.143a.35.35 0 0 0 .18.057.34.34 0 0 0 .336-.2h1.599v4.836q-1.27.406-2.442 1.041a.4.4 0 0 0-.185.1c-2.08 1.174-4.418 3.27-3.966 6.65.385 2.89 1.988 4.302 3.53 4.99q.082.06.183.077 1.206.492 2.508.565v5.485H45.077zm16.933-2.324c-.283-2.113.661-3.91 2.807-5.34l.1-.066-.41 9.465c-1.129-.667-2.207-1.874-2.497-4.06m5.416 15.098c-.584.505-1.428.724-2.52.656l.157-3.644h2.736a.4.4 0 0 0 .169-.036.451.451 0 0 0 .276-.407v-6.376a.44.44 0 0 0-.29-.416.4.4 0 0 0-.177-.028 6.4 6.4 0 0 1-2.395-.398l.456-10.41q1.168-.599 2.434-.946a.44.44 0 0 0 .238-.16.44.44 0 0 0 .097-.27v-5.628a.45.45 0 0 0-.274-.418.5.5 0 0 0-.171-.038h-1.993l.128-2.944 5.244-10.957c.48.023 1.694.262 2.1 1.988a.45.45 0 0 0-.082.241l-.022.656-4.064 8.575a.4.4 0 0 0-.034.136L63.82 54.084l-.324.936a.45.45 0 0 0-.008.252.45.45 0 0 0 .129.22q-.209.557-.655.953zm1.652-4.7 1.061-26.03 3.322-7.008-.8 22.651z"/></g><defs><linearGradient id="b" x1="1" x2="69.989" y1="35.434" y2="35.434" gradientUnits="userSpaceOnUse"><stop stop-color="#0cbaf1"/><stop offset="1" stop-color="#e95ce9"/></linearGradient></defs></svg>