<svg xmlns="http://www.w3.org/2000/svg" width="70" height="70" fill="none" viewBox="0 0 70 70"><mask id="a" width="64" height="60" x="3" y="5" maskUnits="userSpaceOnUse" style="mask-type:luminance"><path fill="#fff" d="M3 5h63.548v60H3z"/></mask><g mask="url(#a)"><path fill="url(#b)" d="M60.602 45.828h.02l.029-.024a.2.2 0 0 0 .032-.028.2.2 0 0 0 .04-.046l.023-.032a.5.5 0 0 0 .053-.192V17.115a.37.37 0 0 0-.065-.208.38.38 0 0 0-.166-.14L35.24 5.235a.4.4 0 0 0-.133-.145.35.35 0 0 0-.303-.046.37.37 0 0 0-.254.017.4.4 0 0 0-.186.174L9.034 16.768a.4.4 0 0 0-.168.14.37.37 0 0 0-.064.207v28.382q0 .05.015.1c0 .01 0 .017.011.029.012.012.016.041.028.063l.023.032a.4.4 0 0 0 .04.046l.032.028.027.023H9l.02.014 25.517 12.341a.36.36 0 0 0 .166.038.4.4 0 0 0 .165-.038l25.717-12.34zm-8.218 3.1-7.903-3.765 6.837-3.26a.17.17 0 0 0 .086-.089l8.11 3.692zm-9.207 4.42-7.932-3.78 8.803-4.194 7.903 3.767zm-25.55-4.193 7.936-3.781 8.804 4.193-8 3.81zm-7.543-3.647 8.109-3.694a.16.16 0 0 0 .085.088l6.837 3.261-7.928 3.779zm17.51-7.973 6.763 3.224-8.804 4.194-6.955-3.321zm.464-.206 6.753-3.072 6.751 3.072-6.753 3.219zm13.959.206 8.998 4.097-6.967 3.32-8.803-4.193zm-16.012 7.628 8.804-4.194 8.803 4.194-8.803 4.191zm34.03-19.135-.408-.186a.202.202 0 0 0-.146-.005.2.2 0 0 0-.106.1.2.2 0 0 0-.005.146.18.18 0 0 0 .099.106l.565.258V36.3l-.407-.186a.185.185 0 0 0-.146-.005.196.196 0 0 0-.106.1.2.2 0 0 0-.005.146.19.19 0 0 0 .099.106l.565.258v8.185l-24.75-11.268v-8.185l.206.095a.19.19 0 0 0 .147.006.187.187 0 0 0 .113-.245.19.19 0 0 0-.1-.108l-.367-.167V15.18l.207.095a.19.19 0 0 0 .147.005.19.19 0 0 0 .11-.246.2.2 0 0 0-.097-.107l-.367-.173v-8.66L60.034 17.36zM34.518 6.003v8.568l-.765.349a.2.2 0 0 0-.09.089.19.19 0 0 0 .05.234.2.2 0 0 0 .12.043.2.2 0 0 0 .078-.018l.607-.278v9.862l-.765.351a.186.186 0 0 0-.1.107.19.19 0 0 0 .005.145.18.18 0 0 0 .174.112.2.2 0 0 0 .08-.019l.606-.277v8.185L9.567 44.9V36.72l.565-.26a.18.18 0 0 0 .099-.108.18.18 0 0 0-.006-.146.18.18 0 0 0-.107-.1.18.18 0 0 0-.145.007l-.406.184v-9.85l.565-.259a.18.18 0 0 0 .099-.108.18.18 0 0 0-.006-.146.18.18 0 0 0-.107-.1.18.18 0 0 0-.145.007l-.406.185v-8.664zm.183 51.404-7.904-3.823 8.001-3.813 7.935 3.78zM26.343 18.54a.18.18 0 0 1-.006-.145.18.18 0 0 1 .099-.107l1.83-.838a.18.18 0 0 1 .138.005q.068.03.098.096.031.067.01.138a.19.19 0 0 1-.086.108l-1.83.838a.2.2 0 0 1-.079.016.18.18 0 0 1-.174-.11m3.659-1.676a.18.18 0 0 1-.006-.146.18.18 0 0 1 .098-.108l1.83-.84a.19.19 0 0 1 .138.007q.068.029.099.095.03.068.009.138a.2.2 0 0 1-.086.108l-1.83.839a.2.2 0 0 1-.08.018.18.18 0 0 1-.172-.111m-18.304 8.392a.19.19 0 0 1 .002-.153.2.2 0 0 1 .115-.1l1.827-.84a.19.19 0 0 1 .225.02q.03.027.048.064.017.036.017.079a.188.188 0 0 1-.13.184l-1.83.838a.2.2 0 0 1-.08.019.2.2 0 0 1-.109-.028.2.2 0 0 1-.076-.083zm3.668-1.68a.188.188 0 0 1 .095-.254l1.828-.84a.19.19 0 0 1 .225.02q.03.027.048.064.017.037.017.079a.19.19 0 0 1-.062.143.2.2 0 0 1-.068.04l-1.828.84a.2.2 0 0 1-.081.017.18.18 0 0 1-.174-.109m3.658-1.678a.18.18 0 0 1-.004-.146.19.19 0 0 1 .1-.107l1.83-.84a.19.19 0 0 1 .145-.005.19.19 0 0 1 .112.246.187.187 0 0 1-.1.107l-1.828.84a.2.2 0 0 1-.146.003.2.2 0 0 1-.109-.098m3.66-1.68a.18.18 0 0 1-.005-.145.18.18 0 0 1 .099-.106l1.83-.838a.19.19 0 0 1 .221.302.2.2 0 0 1-.064.043l-1.83.838a.2.2 0 0 1-.18-.013.2.2 0 0 1-.07-.08m25.623.682a.19.19 0 0 1 .108-.1.2.2 0 0 1 .147.005l1.853.84q.07.035.098.108a.186.186 0 0 1-.075.227.2.2 0 0 1-.183.013l-1.853-.84a.2.2 0 0 1-.1-.107.19.19 0 0 1 .005-.146m7.378 3.36a.19.19 0 0 1 .253-.095l1.854.838q.06.029.09.089a.192.192 0 0 1-.17.277.2.2 0 0 1-.078-.02l-1.853-.837a.19.19 0 0 1-.1-.107.2.2 0 0 1-.012-.073q0-.038.017-.072M44.619 19.22a.18.18 0 0 1 .107-.1.19.19 0 0 1 .145.005l1.855.84q.07.033.098.107a.19.19 0 0 1-.006.146.19.19 0 0 1-.174.111.2.2 0 0 1-.076-.018l-1.854-.84a.19.19 0 0 1-.098-.107.18.18 0 0 1 .003-.144m7.38 3.358a.18.18 0 0 1 .107-.1.18.18 0 0 1 .145.007l1.853.838q.06.029.09.089a.19.19 0 0 1-.05.233.2.2 0 0 1-.118.044.2.2 0 0 1-.08-.019l-1.853-.838a.19.19 0 0 1-.1-.107.19.19 0 0 1 .005-.147m-14.756-6.716a.2.2 0 0 1 .042-.061.2.2 0 0 1 .064-.039.19.19 0 0 1 .146.005l1.853.84q.06.027.09.087t.016.126a.2.2 0 0 1-.066.108.2.2 0 0 1-.119.044.2.2 0 0 1-.078-.019l-1.854-.838a.2.2 0 0 1-.06-.043.2.2 0 0 1-.04-.063.19.19 0 0 1 .006-.147m3.688 1.67a.19.19 0 0 1 .107-.1.19.19 0 0 1 .145.005l1.853.841q.036.015.062.042t.04.064a.19.19 0 0 1-.007.146.18.18 0 0 1-.106.099.18.18 0 0 1-.146-.004l-1.853-.84a.195.195 0 0 1-.113-.18q.002-.039.018-.073M26.334 28.804a.19.19 0 0 1-.006-.147.18.18 0 0 1 .099-.108l1.837-.829a.19.19 0 0 1 .236.102q.03.066.01.137a.19.19 0 0 1-.087.109l-1.83.838a.2.2 0 0 1-.078.018.18.18 0 0 1-.172-.11zm-3.65 1.695a.18.18 0 0 1-.005-.146.19.19 0 0 1 .099-.107l1.83-.838a.19.19 0 0 1 .145-.005.18.18 0 0 1 .107.098.18.18 0 0 1 .006.145.18.18 0 0 1-.098.107l-1.833.832a.2.2 0 0 1-.078.016.17.17 0 0 1-.172-.102m-3.66 1.679a.18.18 0 0 1-.004-.146.18.18 0 0 1 .1-.106l1.83-.842a.2.2 0 0 1 .145-.003.19.19 0 0 1 .124.171.19.19 0 0 1-.051.137.2.2 0 0 1-.06.043l-1.829.84a.2.2 0 0 1-.146.005.2.2 0 0 1-.109-.1m-3.658 1.678a.2.2 0 0 1-.005-.145.186.186 0 0 1 .1-.107l1.828-.84a.188.188 0 0 1 .156-.018.19.19 0 0 1 .135.18.189.189 0 0 1-.062.144.2.2 0 0 1-.069.04l-1.828.841a.19.19 0 0 1-.255-.104zm-3.659 1.679a.185.185 0 0 1 .034-.21.2.2 0 0 1 .061-.042l1.828-.848a.19.19 0 0 1 .225.02.2.2 0 0 1 .048.066q.018.036.018.077a.19.19 0 0 1-.061.144.2.2 0 0 1-.07.04l-1.83.839a.2.2 0 0 1-.079.018.18.18 0 0 1-.174-.113zm18.304-8.391a.19.19 0 0 1-.006-.147.19.19 0 0 1 .099-.108l1.83-.838a.19.19 0 0 1 .137.005q.069.029.099.097.03.066.01.137a.18.18 0 0 1-.087.108l-1.83.839a.2.2 0 0 1-.19-.014.2.2 0 0 1-.071-.088zm21.995 5.714a.18.18 0 0 1 .108-.098.18.18 0 0 1 .145.006l1.854.838q.06.03.09.088a.192.192 0 0 1-.17.278.2.2 0 0 1-.078-.019l-1.854-.838a.193.193 0 0 1-.104-.264zM40.93 27.813a.19.19 0 0 1 .107-.1.2.2 0 0 1 .145.005l1.853.84a.2.2 0 0 1 .1.107.19.19 0 0 1-.005.146.18.18 0 0 1-.106.099.2.2 0 0 1-.146-.004l-1.853-.841a.18.18 0 0 1-.1-.106.19.19 0 0 1 .005-.146m3.688 1.678a.19.19 0 0 1 .107-.098.19.19 0 0 1 .145.003l1.855.84q.07.035.098.108a.19.19 0 0 1-.006.146.2.2 0 0 1-.07.081.2.2 0 0 1-.182.014l-1.854-.84a.2.2 0 0 1-.098-.108.2.2 0 0 1 .005-.146m-7.376-3.357a.187.187 0 0 1 .252-.095l1.853.84a.2.2 0 0 1 .061.044q.025.028.04.063a.19.19 0 0 1-.006.146.18.18 0 0 1-.174.112.2.2 0 0 1-.078-.017l-1.854-.84a.19.19 0 0 1-.1-.107.186.186 0 0 1 .005-.146m11.065 5.036a.19.19 0 0 1 .108-.099.2.2 0 0 1 .147.004l1.853.84a.2.2 0 0 1 .098.108.188.188 0 0 1-.18.256.2.2 0 0 1-.078-.016l-1.853-.84a.2.2 0 0 1-.1-.107.19.19 0 0 1 .005-.146m9.57 4.358a.18.18 0 0 1-.173.111.16.16 0 0 1-.08-.018l-1.853-.838a.19.19 0 0 1-.1-.107.19.19 0 0 1 .005-.145.2.2 0 0 1 .107-.1.18.18 0 0 1 .146.005l1.853.838a.18.18 0 0 1 .1.107.19.19 0 0 1-.005.147m8.66 14.087c0 3.441-2.97 6.702-8.358 9.179-5.202 2.39-12.28 3.9-19.946 4.247h-.026a.58.58 0 0 1-.407-.159.582.582 0 0 1-.138-.62.57.57 0 0 1 .52-.365c15.256-.694 27.21-6.087 27.21-12.272 0-1.936-1.188-3.883-3.432-5.627a.572.572 0 1 1 .694-.905c2.543 1.961 3.883 4.218 3.883 6.522M33.245 62.517a.566.566 0 0 1-.306.475l-3.681 1.924a.56.56 0 0 1-.435.046.57.57 0 0 1-.108-1.05l1.733-.906c-15.723-.903-27.437-6.573-27.437-13.39 0-2.455 1.51-4.84 4.37-6.9a.56.56 0 0 1 .433-.12.562.562 0 0 1 .48.44.57.57 0 0 1-.244.606c-2.547 1.838-3.88 3.903-3.88 5.973 0 6.136 11.583 11.448 26.57 12.25l-1.763-1.2a.57.57 0 0 1-.239-.59.56.56 0 0 1 .247-.362.57.57 0 0 1 .637.005l3.373 2.292a.57.57 0 0 1 .25.507"/></g><defs><linearGradient id="b" x1="3.011" x2="66.537" y1="35.006" y2="35.006" gradientUnits="userSpaceOnUse"><stop stop-color="#0cbaf1"/><stop offset="1" stop-color="#e95ce9"/></linearGradient></defs></svg>