<svg xmlns="http://www.w3.org/2000/svg" width="70" height="70" fill="none" viewBox="0 0 70 70"><path fill="url(#a)" d="M40.57 47.347a.3.3 0 0 1 .034.243.32.32 0 0 1-.152.194 55 55 0 0 1-9.445 4.239c1.533 1.717.957 9.936.468 14.695a.3.3 0 0 1-.101.202.32.32 0 0 1-.212.08h-.03a.318.318 0 0 1-.29-.354c1.338-13.06-.284-14.217-.398-14.289a.3.3 0 0 1-.186-.094 39 39 0 0 1-5.514 1.413q-.693.15-1.404.154c-1.55 0-2.942-.571-3.744-1.597-.753-.963-1.343-2.723.037-5.687-.545-.437-1.784-1.73-.812-3.748a.3.3 0 0 1 .117-.13.3.3 0 0 1 .167-.048h5.212q.06.006.113.031a.31.31 0 0 1 .176.283.313.313 0 0 1-.289.313h-5.001a2.3 2.3 0 0 0-.202 1.223 2.3 2.3 0 0 0 1.078 1.707.3.3 0 0 1 .14.18.33.33 0 0 1-.02.229c-1.095 2.224-1.17 4.042-.219 5.249.892 1.139 2.674 1.616 4.54 1.213.09-.015 7.263-1.14 15.503-5.828a.31.31 0 0 1 .354.03q.05.041.08.097m15.033-1.286c-.556 3.7 1.92 10.29 5.888 15.67q.037.05.052.111.015.06.006.122a.3.3 0 0 1-.124.205.31.31 0 0 1-.347.016.3.3 0 0 1-.091-.082c-4.123-5.588-6.593-12.224-6.004-16.137.19-1.268 1.237-3.614 2.249-5.883.7-1.568 1.424-3.189 1.811-4.343a.1.1 0 0 1 0-.027q.089-.2.172-.405h-4.764a.3.3 0 0 1-.044.2q-.582.972-1.327 1.828c-.112.437-.742 2.675-2.133 3.38a1.9 1.9 0 0 1-.891.218 2.3 2.3 0 0 1-.906-.2c-1.236-.528-1.11-1.8-.876-2.405a.3.3 0 0 1 .07-.094.31.31 0 0 1 .33-.062.3.3 0 0 1 .168.158.32.32 0 0 1 .017.23c-.047.118-.428 1.174.534 1.588q.299.15.632.149.334 0 .633-.15c1.257-.635 1.818-3.009 1.824-3.033a.3.3 0 0 1 .064-.129q.69-.791 1.242-1.684h-4.976a.3.3 0 0 1-.08-.01 5.54 5.54 0 0 1-2.532-1.593.3.3 0 0 1-.219.099h-1.358c-.937 1.565-2.056 2.624-3.357 2.624h-.083c-.438.26-2.409 1.39-4.285 1.39-.134 0-.27 0-.403-.019a2.6 2.6 0 0 1-1.056.24q-.111 0-.219-.015l-20.111-1.08a.3.3 0 0 1 .06.052c.746.983 2.93 1.049 3.709.989a.31.31 0 0 1 .324.22.3.3 0 0 1 .01.14c-.089.611-.218 2.376.194 3.17a.33.33 0 0 1 .022.24.31.31 0 0 1-.154.184.313.313 0 0 1-.308-.008.3.3 0 0 1-.117-.12c-.466-.876-.377-2.463-.304-3.185-.876.015-2.994-.083-3.878-1.251a.3.3 0 0 1-.06-.231.3.3 0 0 1 .121-.207s.016 0 .022-.01l-3.843-.208c-.105 0-2.67-.072-2.921-1.68C5.66 34.48 5.472 31.9 5.46 31.67a86 86 0 0 1-.278-14.483c.066-1.715 1.583-2.272 2.129-2.338l.319-.057c.26-.365 1.14-1.331 3.338-1.653.072 0 4.519-.604 11.242-.923 4.081-6.109 12.83-9.475 18.937-9.202 8.203.37 15.208 4.375 18.786 10.717l.909-.08a1.95 1.95 0 0 1 .3-1.383c.284-.374.73-.57 1.313-.586h.064c2.067 0 2.227 2.68 2.345 4.642.246 4.067.156 7.298-.271 9.874-.607 3.68-1.599 6.452-4.557 8.748q-.2.51-.416 1.005c-.396 1.183-1.095 2.74-1.827 4.387-.984 2.23-2.014 4.537-2.191 5.722m6.006-25.636-7.844.827a1.26 1.26 0 0 1-.83.188l-1.532.057a26 26 0 0 1-3.178 9.337 2.58 2.58 0 0 0 1.631.973c.877.186 3.66.219 5.68.219a.3.3 0 0 1 .018-.177c.633-1.551.743-2.916.303-3.744a1.6 1.6 0 0 0-.476-.548 1.6 1.6 0 0 0-.67-.28c-2.862-.612-3.589 2.006-3.617 2.118a.3.3 0 0 1-.144.201.3.3 0 0 1-.245.036.31.31 0 0 1-.233-.274.3.3 0 0 1 .014-.125c0-.033.912-3.305 4.357-2.57a2.2 2.2 0 0 1 .911.399 2.2 2.2 0 0 1 .648.754c.53.997.438 2.493-.252 4.214h1.548c.294-.136 1.971-1.02 3.4-3.967.082-.482.69-4.608.511-7.638m-8.683.387h.034c.35.018.455-.063.466-.085v-3.803c-5.46-3.026-11.777-3.863-14.7-4.081q.465.388.759.918.292.531.373 1.13 1.029 7.683.16 15.385c-.39 3.37-1.252 5.686-2.564 6.894 1.723-.22 3.462-1.297 3.481-1.312h.024c2.164-1.13 2.41-4.64 2.41-4.674l.438-7.355c.05-2.65 2.541-2.76 2.566-2.76zm9.99-1.776-.321-4.882-11.652.876q1.523.63 2.96 1.439a.31.31 0 0 1 .16.273v3.85l7.816-.825c1.038-.16 1.038-.724 1.038-.73M41.12 3.643c-.375-.015-.76-.02-1.152 0-2.166.427-6.997 2.067-11.556 8.399 2.354-.028 4.859 0 7.445.079.055 0 .112 0 .173.015q.45-.039.898.013a.3.3 0 0 1 .118-.022q6.444.23 12.522 2.38l9.66-.726C55.722 7.775 48.991 3.998 41.12 3.643M23 12.186c1.569-.067 3.253-.118 5.025-.144 3.21-4.534 6.551-6.701 8.811-7.73.497-.218.962-.404 1.39-.55-5.413.665-11.8 3.63-15.225 8.424M8.727 14.611c1.885-.299 5.42-.802 9.197-1.02 4.912-.287 12.131-.438 12.565-.438a3.65 3.65 0 0 1 1.465.18q.352.12.676.308.322.188.598.437c1.787 1.507 2.694 4.547 2.694 9.035 0 4.922-.54 8.56-1.603 10.822-.453.962-.915 1.474-1.257 1.75l2.435.118c1.018-.942 1.667-3.732 1.833-4.753 1.338-8.245.248-16.487.237-16.567-.165-1.354-1.148-1.654-1.547-1.72a.3.3 0 0 1-.066 0h-.098q-12.435-.436-24.797.998a5.25 5.25 0 0 0-2.332.85m0 19.904 2.378-2.143a.3.3 0 0 1 .219-.082l12.228.276a.4.4 0 0 1 .122.028 46 46 0 0 1 5.122 2.776H32.4c.278-.127 2.884-1.592 2.884-12.248 0-5.347-1.343-7.604-2.468-8.554-1.126-.949-2.245-.783-2.256-.78h-.045c-.075 0-7.533.142-12.561.437q-5.305.324-10.542 1.242H7.39c-.013 0-1.521.219-1.579 1.75a85 85 0 0 0 .287 14.4.1.1 0 0 1 0 .035c0 .103.092 2.727 2.628 2.87zm14.744-1.312-12.044-.274-1.824 1.634 18.107.864c-1.84-1.11-3.873-2.058-4.248-2.227zm12.827 4.006q.233-.116.438-.27c.93-.697 2.14-2.428 2.64-6.737a62 62 0 0 0-.156-15.207c-.219-1.287-.983-1.85-1.695-2.089a2.63 2.63 0 0 1 .657 1.498c0 .079 1.112 8.41-.239 16.749-.028.164-.675 4.031-2.148 5.217a.3.3 0 0 1-.197.07h-.016L8.818 35.15h-.157c.393.876 2.233.946 2.255.946l24.342 1.313h.04q.526.046.99-.202zM47.77 21.631l-1.38.048c-.079 0-1.92.1-1.96 2.156l-.449 7.38c0 .126-.174 2.584-1.532 4.21 2.8-1.91 4.717-10.116 5.312-13.797zm-1.943 11.551c3.789-4.557 4.746-10.207 4.937-11.657l-2.361.085c-.139.858-1.255 7.47-3.431 11.572zm3.032 1.506h10.5c3.035-2.219 4.021-4.933 4.627-8.585.417-2.53.503-5.715.262-9.735-.134-2.216-.357-4.05-1.723-4.05h-.04a1 1 0 0 0-.458.07 1 1 0 0 0-.38.266 1.34 1.34 0 0 0-.174.956l1.38-.105a.3.3 0 0 1 .23.077.3.3 0 0 1 .107.219l.355 5.205c0 .048.035 1.012-1.314 1.334.206 3.28-.479 7.675-.51 7.874a.3.3 0 0 1-.026.085c-1.678 3.5-3.723 4.313-3.813 4.346a.4.4 0 0 1-.105.02c-.094 0-.937.01-2.054.01-2.056 0-5.036-.037-6.002-.24a3.32 3.32 0 0 1-1.846-1.018 21 21 0 0 1-1.27 1.807 4.9 4.9 0 0 0 2.254 1.457z" opacity=".86"/><defs><linearGradient id="a" x1="5" x2="65" y1="35" y2="35" gradientUnits="userSpaceOnUse"><stop stop-color="#0cbaf1"/><stop offset="1" stop-color="#e95ce9"/></linearGradient></defs></svg>