<svg xmlns="http://www.w3.org/2000/svg" width="48" height="48" fill="none" viewBox="0 0 48 48"><mask id="a" width="48" height="48" x="0" y="0" maskUnits="userSpaceOnUse" style="mask-type:luminance"><path fill="#fff" d="M0 0h48v48H0z"/></mask><g fill-rule="evenodd" clip-rule="evenodd" mask="url(#a)"><path fill="url(#b)" d="M26.066 27.999q-2.065.004-4.132 0a.703.703 0 1 0-.003 1.406q2.07.004 4.138 0A.703.703 0 1 0 26.066 28"/><path fill="url(#c)" d="M33.984 37.289a.703.703 0 0 0-.232-.967 8.25 8.25 0 0 1-3.777-5.377.703.703 0 1 0-1.377.285 9.66 9.66 0 0 0 4.418 6.29c.331.203.764.1.968-.231"/><path fill="url(#d)" d="M7.615 38.686c5.338 1.289 10.679-2.098 11.788-7.456a.703.703 0 1 0-1.377-.285c-.948 4.579-5.515 7.477-10.081 6.374h-.003l-.173-.042c-4.287-1.035-7.025-5.24-6.224-9.575.679-3.665 1.6-7.372 2.694-11.115a8.27 8.27 0 0 1 7.66-5.933 351 351 0 0 1 24.203 0 8.27 8.27 0 0 1 7.659 5.933c1.094 3.743 2.015 7.45 2.694 11.115.801 4.334-1.937 8.54-6.224 9.575l-.086.02h-.002l-.087.022m-32.44 1.367-.176-.042h-.001c-5.01-1.21-8.214-6.126-7.276-11.197.688-3.722 1.622-7.476 2.727-11.254a9.67 9.67 0 0 1 8.96-6.944q12.15-.42 24.3 0a9.67 9.67 0 0 1 8.96 6.944c1.105 3.778 2.039 7.532 2.727 11.254.939 5.07-2.265 9.987-7.276 11.197l-.089.02-.086.022a9.7 9.7 0 0 1-4.598-.007.703.703 0 1 1 .336-1.365 8.3 8.3 0 0 0 3.931.005"/><path fill="url(#e)" d="M18.814 30.386a2.527 2.527 0 1 1 0-5.055 2.527 2.527 0 0 1 0 5.055m-3.934-2.528a3.934 3.934 0 1 0 7.868 0 3.934 3.934 0 0 0-7.868 0"/><path fill="url(#f)" d="M29.186 30.386a2.527 2.527 0 1 1 0-5.055 2.527 2.527 0 0 1 0 5.055m-3.933-2.528a3.934 3.934 0 1 0 7.867 0 3.934 3.934 0 0 0-7.867 0"/><path fill="url(#g)" d="M10.262 26.767h.042c1.528-.001 2.77-1.22 2.81-2.743l.004-.134.134-.004a2.815 2.815 0 0 0 2.743-2.81v-.042c0-1.528-1.22-2.77-2.743-2.811l-.134-.004-.004-.134a2.815 2.815 0 0 0-2.81-2.743h-.042a2.816 2.816 0 0 0-2.81 2.743l-.004.134-.134.004a2.815 2.815 0 0 0-2.743 2.81v.043c0 1.527 1.22 2.769 2.743 2.81l.134.004.003.134a2.816 2.816 0 0 0 2.811 2.743m.041-1.407h-.04a1.41 1.41 0 0 1-1.406-1.374m1.446 1.374a1.41 1.41 0 0 0 1.406-1.374zm-1.446-1.374q-.011-.399-.019-.798a.703.703 0 0 0-.689-.689q-.399-.008-.797-.018m4.357 1.505.018-.798zm1.505-1.506q-.399.011-.798.02a.703.703 0 0 0-.689.688m1.487-.707a1.41 1.41 0 0 0 1.375-1.406v-.04m-8.612.04v-.041a1.41 1.41 0 0 1 1.375-1.405q.398-.012.797-.019a.703.703 0 0 0 .69-.69q.006-.397.018-.797m-2.88 2.952a1.41 1.41 0 0 0 1.375 1.406zm8.612-.041a1.41 1.41 0 0 0-1.375-1.405zm-1.375-1.405-.797-.019a.703.703 0 0 1-.69-.689l-.018-.798m-2.852 0a1.41 1.41 0 0 1 1.406-1.374h.04a1.41 1.41 0 0 1 1.406 1.374"/><path fill="url(#h)" d="M40.457 19.858a1.307 1.307 0 1 1-1.848-1.849 1.307 1.307 0 0 1 1.848 1.85m-2.843.995a2.713 2.713 0 1 0 3.838-3.837 2.713 2.713 0 0 0-3.838 3.837"/><path fill="url(#i)" d="M36.216 24.1a1.307 1.307 0 1 1-1.848-1.85 1.307 1.307 0 0 1 1.848 1.85m-2.843.994a2.713 2.713 0 1 0 3.838-3.837 2.713 2.713 0 0 0-3.837 3.837"/><path fill="url(#j)" d="M20.03 19.758a2 2 0 0 0 2 2h4.16a2 2 0 1 0 0-4h-4.16a2 2 0 0 0-2 2m2 .594a.594.594 0 0 1 0-1.188h4.16a.594.594 0 1 1 0 1.188z"/><path fill="url(#k)" d="M16.446 14.434a.703.703 0 0 0-.29-.951 2.47 2.47 0 0 1-1.298-1.962 20 20 0 0 1-.078-1.642.703.703 0 0 0-1.407.007q.006.881.084 1.759v.002a3.88 3.88 0 0 0 2.037 3.077.703.703 0 0 0 .952-.29"/><path fill="url(#l)" d="M30.79 13.767q-6.09.238-12.18.048a.703.703 0 0 0-.043 1.406q6.14.191 12.277-.05m2.298-3.65a2.46 2.46 0 0 1-2.353 2.246m2.353-2.246q.073-.824.078-1.642a.703.703 0 1 1 1.407.007 21 21 0 0 1-.084 1.759v.001a3.87 3.87 0 0 1-3.699 3.526"/></g><defs><linearGradient id="b" x1="21.23" x2="26.77" y1="28.703" y2="28.703" gradientUnits="userSpaceOnUse"><stop stop-color="#0cbaf1"/><stop offset="1" stop-color="#e95ce9"/></linearGradient><linearGradient id="c" x1="28.583" x2="34.088" y1="34.004" y2="34.004" gradientUnits="userSpaceOnUse"><stop stop-color="#0cbaf1"/><stop offset="1" stop-color="#e95ce9"/></linearGradient><linearGradient id="d" x1="0" x2="48" y1="24" y2="24" gradientUnits="userSpaceOnUse"><stop stop-color="#0cbaf1"/><stop offset="1" stop-color="#e95ce9"/></linearGradient><linearGradient id="e" x1="14.88" x2="22.748" y1="27.858" y2="27.858" gradientUnits="userSpaceOnUse"><stop stop-color="#0cbaf1"/><stop offset="1" stop-color="#e95ce9"/></linearGradient><linearGradient id="f" x1="25.253" x2="33.12" y1="27.858" y2="27.858" gradientUnits="userSpaceOnUse"><stop stop-color="#0cbaf1"/><stop offset="1" stop-color="#e95ce9"/></linearGradient><linearGradient id="g" x1="4.571" x2="15.995" y1="21.055" y2="21.055" gradientUnits="userSpaceOnUse"><stop stop-color="#0cbaf1"/><stop offset="1" stop-color="#e95ce9"/></linearGradient><linearGradient id="h" x1="36.819" x2="42.246" y1="18.934" y2="18.934" gradientUnits="userSpaceOnUse"><stop stop-color="#0cbaf1"/><stop offset="1" stop-color="#e95ce9"/></linearGradient><linearGradient id="i" x1="32.579" x2="38.005" y1="23.175" y2="23.175" gradientUnits="userSpaceOnUse"><stop stop-color="#0cbaf1"/><stop offset="1" stop-color="#e95ce9"/></linearGradient><linearGradient id="j" x1="20.029" x2="28.19" y1="19.758" y2="19.758" gradientUnits="userSpaceOnUse"><stop stop-color="#0cbaf1"/><stop offset="1" stop-color="#e95ce9"/></linearGradient><linearGradient id="k" x1="13.373" x2="16.528" y1="11.993" y2="11.993" gradientUnits="userSpaceOnUse"><stop stop-color="#0cbaf1"/><stop offset="1" stop-color="#e95ce9"/></linearGradient><linearGradient id="l" x1="17.886" x2="34.627" y1="12.243" y2="12.243" gradientUnits="userSpaceOnUse"><stop stop-color="#0cbaf1"/><stop offset="1" stop-color="#e95ce9"/></linearGradient></defs></svg>