<svg xmlns="http://www.w3.org/2000/svg" width="48" height="48" fill="none" viewBox="0 0 48 48"><mask id="a" width="48" height="48" x="0" y="0" maskUnits="userSpaceOnUse" style="mask-type:luminance"><path fill="#fff" d="M0 0h48v48H0z"/></mask><g fill-rule="evenodd" clip-rule="evenodd" mask="url(#a)"><path fill="url(#b)" d="M7.35 6.645a3.256 3.256 0 0 0 3.249 3.249.703.703 0 0 0 0-1.407 1.85 1.85 0 0 1-1.843-1.842V3.248A1.85 1.85 0 0 1 10.6 1.406a1.85 1.85 0 0 1 1.845 1.842v1.698a.703.703 0 0 0 1.406 0V3.248C13.85 1.46 12.39 0 10.6 0a3.256 3.256 0 0 0-3.25 3.25z"/><path fill="url(#c)" d="M16.505 6.645a3.256 3.256 0 0 0 3.248 3.249.703.703 0 0 0 0-1.407 1.85 1.85 0 0 1-1.842-1.842V3.248a1.85 1.85 0 0 1 1.842-1.842A1.85 1.85 0 0 1 21.6 3.248v1.698a.703.703 0 1 0 1.406 0V3.248C23.005 1.46 21.545 0 19.753 0a3.256 3.256 0 0 0-3.248 3.25z"/><path fill="url(#d)" d="M25.66 6.645a3.256 3.256 0 0 0 3.248 3.249.703.703 0 0 0 0-1.407 1.85 1.85 0 0 1-1.842-1.842V3.248a1.85 1.85 0 0 1 1.842-1.842 1.85 1.85 0 0 1 1.846 1.842v1.698a.703.703 0 1 0 1.406 0V3.248C32.16 1.46 30.7 0 28.908 0a3.256 3.256 0 0 0-3.249 3.25z"/><path fill="url(#e)" d="M34.814 6.645c0 1.789 1.46 3.249 3.252 3.249a.703.703 0 0 0 0-1.407 1.85 1.85 0 0 1-1.846-1.842V3.248a1.85 1.85 0 0 1 1.846-1.842 1.85 1.85 0 0 1 1.842 1.842v1.698a.703.703 0 1 0 1.407 0V3.248A3.256 3.256 0 0 0 38.065 0a3.257 3.257 0 0 0-3.25 3.25z"/><path fill="url(#f)" d="M31.99 38.095a.703.703 0 0 0-.11-.988L15.055 23.612a.703.703 0 1 0-.88 1.097l16.827 13.495a.703.703 0 0 0 .988-.109"/><path fill="url(#g)" d="M26.608 25.732a.703.703 0 0 0 .989-.109l2.62-3.268a.703.703 0 0 0-1.097-.88l-2.62 3.269a.703.703 0 0 0 .108.988"/><path fill="url(#h)" d="M21.555 26.701a.703.703 0 0 0 .992-.067c.93-1.063 2.047-2.429 2.903-4.067a.703.703 0 1 0-1.247-.65c-.776 1.486-1.805 2.75-2.715 3.792a.703.703 0 0 0 .067.992"/><path fill="url(#i)" d="M26.76 30.874c.312.23.752.163.982-.15.818-1.113 1.83-2.394 3.112-3.471a.703.703 0 1 0-.905-1.077c-1.413 1.188-2.505 2.58-3.34 3.715a.703.703 0 0 0 .15.983"/><path fill="url(#j)" d="M30.013 33.485c.317.225.756.15.98-.166 1.105-1.555 2.703-3.43 5.597-3.569a.703.703 0 0 0-.067-1.404c-3.585.17-5.527 2.54-6.676 4.159a.703.703 0 0 0 .166.98"/><path fill="url(#k)" d="M19.39 23.755a.703.703 0 0 0 .963-.246c.43-.723 1.025-1.896.833-3.595a.703.703 0 0 0-1.398.158c.143 1.257-.282 2.109-.644 2.72a.703.703 0 0 0 .245.963"/><path fill="url(#l)" d="M10.493 47.974c.276-.049.575-.162.878-.302l.043-.021 19.07-10.415a.703.703 0 0 0 .103-1.166L16.348 24.648a.703.703 0 0 0-1.115.354L9.208 45.86l-.011.047c-.074.34-.12.664-.105.95.014.275.094.655.423.914.326.258.712.249.977.203m.073-1.747 5.725-19.822 12.593 10.102-18.122 9.898a4 4 0 0 1-.247.103q.017-.12.051-.281"/><path fill="url(#m)" d="M22.237 41.727a.703.703 0 0 0 .109-.988l-7.723-9.636a.703.703 0 0 0-1.097.88l7.722 9.635a.703.703 0 0 0 .989.11"/><path fill="url(#n)" d="M18.065 44.005a.703.703 0 0 0 .108-.989l-5.14-6.41a.703.703 0 0 0-1.096.88l5.14 6.41a.703.703 0 0 0 .988.109"/><path fill="url(#o)" d="M15.115 45.615a.703.703 0 0 0 .109-.989l-3.314-4.132a.703.703 0 1 0-1.097.88l3.314 4.132a.703.703 0 0 0 .988.109"/><path fill="url(#p)" d="M25.186 40.117a.703.703 0 0 0 .11-.988l-4.03-5.028a.703.703 0 1 0-1.097.879l4.029 5.028a.703.703 0 0 0 .988.11m-6.104-7.616a.703.703 0 0 0 .11-.989l-3.445-4.3a.703.703 0 1 0-1.097.88l3.444 4.3a.703.703 0 0 0 .988.109"/><path fill="url(#q)" d="M2.412 41.07a1.13 1.13 0 0 0 1.129 1.128h7.66a.703.703 0 0 0 0-1.406H3.819V5.65h40.364v35.142H21.218a.703.703 0 0 0 0 1.406H44.46a1.13 1.13 0 0 0 1.128-1.128V5.372a1.13 1.13 0 0 0-1.129-1.128H3.541a1.13 1.13 0 0 0-1.129 1.128z"/><path fill="url(#r)" d="M2.412 15.84c0 .388.315.703.703.703h19.14a.703.703 0 0 0 0-1.406H3.114a.703.703 0 0 0-.703.703m22.384 0c0 .388.314.703.703.703h19.386a.703.703 0 0 0 0-1.406H25.499a.703.703 0 0 0-.703.703m-22.384-3.3c0 .388.315.702.703.702h41.77a.703.703 0 0 0 0-1.406H3.115a.703.703 0 0 0-.703.703"/></g><defs><linearGradient id="b" x1="7.35" x2="13.85" y1="4.946" y2="4.946" gradientUnits="userSpaceOnUse"><stop stop-color="#0cbaf1"/><stop offset="1" stop-color="#e95ce9"/></linearGradient><linearGradient id="c" x1="16.505" x2="23.005" y1="4.946" y2="4.946" gradientUnits="userSpaceOnUse"><stop stop-color="#0cbaf1"/><stop offset="1" stop-color="#e95ce9"/></linearGradient><linearGradient id="d" x1="25.659" x2="32.16" y1="4.946" y2="4.946" gradientUnits="userSpaceOnUse"><stop stop-color="#0cbaf1"/><stop offset="1" stop-color="#e95ce9"/></linearGradient><linearGradient id="e" x1="34.814" x2="41.315" y1="4.946" y2="4.946" gradientUnits="userSpaceOnUse"><stop stop-color="#0cbaf1"/><stop offset="1" stop-color="#e95ce9"/></linearGradient><linearGradient id="f" x1="13.911" x2="32.144" y1="30.908" y2="30.908" gradientUnits="userSpaceOnUse"><stop stop-color="#0cbaf1"/><stop offset="1" stop-color="#e95ce9"/></linearGradient><linearGradient id="g" x1="26.345" x2="30.372" y1="23.549" y2="23.549" gradientUnits="userSpaceOnUse"><stop stop-color="#0cbaf1"/><stop offset="1" stop-color="#e95ce9"/></linearGradient><linearGradient id="h" x1="21.314" x2="25.53" y1="24.207" y2="24.207" gradientUnits="userSpaceOnUse"><stop stop-color="#0cbaf1"/><stop offset="1" stop-color="#e95ce9"/></linearGradient><linearGradient id="i" x1="26.472" x2="31.105" y1="28.511" y2="28.511" gradientUnits="userSpaceOnUse"><stop stop-color="#0cbaf1"/><stop offset="1" stop-color="#e95ce9"/></linearGradient><linearGradient id="j" x1="29.717" x2="37.259" y1="30.98" y2="30.98" gradientUnits="userSpaceOnUse"><stop stop-color="#0cbaf1"/><stop offset="1" stop-color="#e95ce9"/></linearGradient><linearGradient id="k" x1="19.045" x2="21.223" y1="21.572" y2="21.572" gradientUnits="userSpaceOnUse"><stop stop-color="#0cbaf1"/><stop offset="1" stop-color="#e95ce9"/></linearGradient><linearGradient id="l" x1="9.089" x2="30.85" y1="36.246" y2="36.246" gradientUnits="userSpaceOnUse"><stop stop-color="#0cbaf1"/><stop offset="1" stop-color="#e95ce9"/></linearGradient><linearGradient id="m" x1="13.371" x2="22.5" y1="36.361" y2="36.361" gradientUnits="userSpaceOnUse"><stop stop-color="#0cbaf1"/><stop offset="1" stop-color="#e95ce9"/></linearGradient><linearGradient id="n" x1="11.782" x2="18.328" y1="40.251" y2="40.251" gradientUnits="userSpaceOnUse"><stop stop-color="#0cbaf1"/><stop offset="1" stop-color="#e95ce9"/></linearGradient><linearGradient id="o" x1="10.658" x2="15.378" y1="43" y2="43" gradientUnits="userSpaceOnUse"><stop stop-color="#0cbaf1"/><stop offset="1" stop-color="#e95ce9"/></linearGradient><linearGradient id="p" x1="14.495" x2="25.45" y1="33.61" y2="33.61" gradientUnits="userSpaceOnUse"><stop stop-color="#0cbaf1"/><stop offset="1" stop-color="#e95ce9"/></linearGradient><linearGradient id="q" x1="2.412" x2="45.588" y1="23.221" y2="23.221" gradientUnits="userSpaceOnUse"><stop stop-color="#0cbaf1"/><stop offset="1" stop-color="#e95ce9"/></linearGradient><linearGradient id="r" x1="2.412" x2="45.588" y1="14.19" y2="14.19" gradientUnits="userSpaceOnUse"><stop stop-color="#0cbaf1"/><stop offset="1" stop-color="#e95ce9"/></linearGradient></defs></svg>