<svg xmlns="http://www.w3.org/2000/svg" width="48" height="48" fill="none" viewBox="0 0 48 48"><g clip-path="url(#a)"><mask id="b" width="48" height="48" x="0" y="0" maskUnits="userSpaceOnUse" style="mask-type:luminance"><path fill="#fff" d="M0 0h48v48H0z"/></mask><g fill-rule="evenodd" clip-rule="evenodd" mask="url(#b)"><path fill="url(#c)" d="M13.183 32.269a4.725 4.725 0 0 1-5.548-2.02l-.586.358.586-.358-3.897-6.4a10.83 10.83 0 0 1-.927-9.338L6.774 3.623l-.66-.24.66.24A3.37 3.37 0 0 1 11.09 1.61L28.945 8.11l.24-.661-.24.66a3.37 3.37 0 0 1 2.013 4.318l-3.962 10.887a10.83 10.83 0 0 1-6.714 6.558zm.45 1.332a6.13 6.13 0 0 1-7.199-2.62l-3.897-6.4.6-.365-.6.365A12.24 12.24 0 0 1 1.49 14.03L5.452 3.142A4.775 4.775 0 0 1 11.572.29l17.854 6.498a4.775 4.775 0 0 1 2.854 6.12l-3.963 10.887a12.24 12.24 0 0 1-7.585 7.41l-.21-.621.21.62z"/><path fill="url(#d)" d="M18.558 23.656a5.4 5.4 0 0 1-5.95 1.562l-.24.661.24-.66a5.4 5.4 0 0 1-3.553-5.022c1.222 1.015 2.743 1.89 4.465 2.517s3.45.934 5.038.942m-6.43 2.884a6.81 6.81 0 0 0 8.412-3.346.703.703 0 0 0-.71-1.013c-1.709.202-3.754-.033-5.83-.789-2.075-.755-3.792-1.89-4.97-3.142a.703.703 0 0 0-1.197.319 6.81 6.81 0 0 0 4.294 7.97"/><path fill="url(#e)" d="M13.701 15.43a.703.703 0 0 0 .511-.853c-.296-1.187-1.23-2.221-2.527-2.693M13.7 15.43a.703.703 0 0 1-.853-.511zm-.853-.511c-.176-.705-.756-1.39-1.645-1.714zM7.86 13.304a.703.703 0 0 0 .982.156c.588-.426 1.473-.578 2.361-.255m-3.343.1a.703.703 0 0 1 .156-.983zm.156-.983c.991-.718 2.37-.91 3.669-.438z"/><path fill="url(#f)" d="M23.903 19.144a.703.703 0 0 0 .512-.853c-.297-1.187-1.23-2.221-2.528-2.694m2.016 3.547a.703.703 0 0 1-.852-.512zm-.852-.512c-.177-.704-.756-1.39-1.645-1.713zm-4.989-1.614a.703.703 0 0 0 .982.156c.588-.426 1.473-.579 2.362-.255m-3.344.099a.703.703 0 0 1 .157-.982zm.157-.982c.99-.719 2.37-.911 3.668-.439z"/><path fill="url(#g)" d="M15.816 10.525a.703.703 0 0 0-.42-.9c-2.028-.739-3.748-.79-4.974-.649a8 8 0 0 0-1.439.292 6 6 0 0 0-.553.2l-.004.003h-.002l.296.638-.297-.637a.703.703 0 0 0 .591 1.276l.013-.006.067-.027q.095-.038.297-.101c.27-.082.673-.18 1.192-.24 1.035-.12 2.533-.083 4.332.572a.703.703 0 0 0 .9-.42m-6.8.222"/><path fill="url(#h)" d="M25.596 16.78a.703.703 0 0 0 .34-.934l-.637.297.637-.297v-.001l-.001-.002-.002-.004-.005-.01a2 2 0 0 0-.073-.14 6 6 0 0 0-.217-.36 8 8 0 0 0-.915-1.148c-.849-.896-2.2-1.962-4.226-2.7a.703.703 0 0 0-.481 1.321c1.798.655 2.97 1.59 3.686 2.346.359.38.605.715.758.95a4 4 0 0 1 .197.333l.006.012c.165.35.582.501.933.338"/><path fill="url(#i)" d="M40.365 44.325a4.725 4.725 0 0 1-5.548 2.02l-7.1-2.398a10.83 10.83 0 0 1-6.712-6.558l-1.257-3.452a.703.703 0 1 0-1.322.48l1.257 3.453a12.24 12.24 0 0 0 7.585 7.41l7.099 2.397a6.13 6.13 0 0 0 7.199-2.62l3.897-6.4-.6-.365.6.365a12.24 12.24 0 0 0 1.047-10.551l-3.962-10.888a4.775 4.775 0 0 0-6.12-2.853l-3.15 1.146a.703.703 0 0 0 .482 1.322l3.149-1.147a3.37 3.37 0 0 1 4.317 2.013l3.963 10.888a10.83 10.83 0 0 1-.927 9.339zl.6.365z"/><path fill="url(#j)" d="M29.28 41.405c.25.067.516-.01.693-.198 1.178-1.252 2.896-2.387 4.971-3.142l-.24-.661.24.66c2.076-.755 4.121-.99 5.829-.788a.703.703 0 0 0 .711-1.013 6.81 6.81 0 0 0-8.413-3.346 6.81 6.81 0 0 0-4.294 7.972c.06.251.253.45.503.516m.718-2.145a5.4 5.4 0 0 1 3.554-5.021l-.24-.661.24.66a5.4 5.4 0 0 1 5.95 1.563c-1.589.008-3.316.315-5.038.942s-3.243 1.502-4.466 2.517m3.314-5.682-.002-.003z"/><path fill="url(#k)" d="M26.826 30.862c-.774.544-1.668.627-2.346.368a.703.703 0 0 0-.502 1.314c1.144.436 2.526.263 3.656-.53 1.13-.794 1.763-2.035 1.741-3.259a.703.703 0 1 0-1.406.025c.013.726-.369 1.539-1.143 2.082"/><path fill="url(#l)" d="M33.227 27.354c.77.951 2.052 1.496 3.428 1.377s2.546-.875 3.141-1.944a.703.703 0 0 0-1.228-.684c-.354.634-1.092 1.146-2.034 1.227s-1.757-.296-2.214-.86a.703.703 0 1 0-1.093.884"/><path fill="url(#m)" d="M32.184 24.6a.703.703 0 0 0 .902.42c1.798-.654 3.296-.69 4.33-.571.52.06.924.158 1.193.24a4 4 0 0 1 .364.129l.013.005h-.001l-.001-.001.283-.609-.284.609.003.001a.703.703 0 0 0 .591-1.276l-.297.637.297-.637h-.001l-.002-.001-.004-.002-.01-.005a2 2 0 0 0-.145-.06 6 6 0 0 0-.398-.136 8 8 0 0 0-1.44-.291c-1.225-.142-2.945-.09-4.972.647a.703.703 0 0 0-.42.902"/></g></g><defs><linearGradient id="c" x1=".752" x2="32.569" y1="16.962" y2="16.962" gradientUnits="userSpaceOnUse"><stop stop-color="#0cbaf1"/><stop offset="1" stop-color="#e95ce9"/></linearGradient><linearGradient id="d" x1="7.648" x2="20.615" y1="22.49" y2="22.49" gradientUnits="userSpaceOnUse"><stop stop-color="#0cbaf1"/><stop offset="1" stop-color="#e95ce9"/></linearGradient><linearGradient id="e" x1="7.726" x2="14.234" y1="13.538" y2="13.538" gradientUnits="userSpaceOnUse"><stop stop-color="#0cbaf1"/><stop offset="1" stop-color="#e95ce9"/></linearGradient><linearGradient id="f" x1="17.928" x2="24.436" y1="17.252" y2="17.252" gradientUnits="userSpaceOnUse"><stop stop-color="#0cbaf1"/><stop offset="1" stop-color="#e95ce9"/></linearGradient><linearGradient id="g" x1="8.017" x2="15.858" y1="9.951" y2="9.951" gradientUnits="userSpaceOnUse"><stop stop-color="#0cbaf1"/><stop offset="1" stop-color="#e95ce9"/></linearGradient><linearGradient id="h" x1="19.553" x2="26.002" y1="14.143" y2="14.143" gradientUnits="userSpaceOnUse"><stop stop-color="#0cbaf1"/><stop offset="1" stop-color="#e95ce9"/></linearGradient><linearGradient id="i" x1="18.384" x2="47.248" y1="31.038" y2="31.038" gradientUnits="userSpaceOnUse"><stop stop-color="#0cbaf1"/><stop offset="1" stop-color="#e95ce9"/></linearGradient><linearGradient id="j" x1="28.592" x2="41.559" y1="36.967" y2="36.967" gradientUnits="userSpaceOnUse"><stop stop-color="#0cbaf1"/><stop offset="1" stop-color="#e95ce9"/></linearGradient><linearGradient id="k" x1="23.526" x2="29.376" y1="30.421" y2="30.421" gradientUnits="userSpaceOnUse"><stop stop-color="#0cbaf1"/><stop offset="1" stop-color="#e95ce9"/></linearGradient><linearGradient id="l" x1="33.07" x2="39.885" y1="27.244" y2="27.244" gradientUnits="userSpaceOnUse"><stop stop-color="#0cbaf1"/><stop offset="1" stop-color="#e95ce9"/></linearGradient><linearGradient id="m" x1="32.142" x2="39.983" y1="24.026" y2="24.026" gradientUnits="userSpaceOnUse"><stop stop-color="#0cbaf1"/><stop offset="1" stop-color="#e95ce9"/></linearGradient><clipPath id="a"><path fill="#fff" d="M0 0h48v48H0z"/></clipPath></defs></svg>