<svg xmlns="http://www.w3.org/2000/svg" width="48" height="7" fill="none" viewBox="0 0 48 7"><mask id="a" width="48" height="7" x="0" y="0" maskUnits="userSpaceOnUse" style="mask-type:luminance"><path fill="#fff" d="M0 0h47.704v7H0z"/></mask><g mask="url(#a)"><mask id="b" width="50" height="9" x="-1" y="-1" maskUnits="userSpaceOnUse" style="mask-type:luminance"><path fill="#fff" d="M-.297 3.8 47.586-.848 48 2.697.117 7.345z"/></mask><g mask="url(#b)"><mask id="c" width="50" height="9" x="-1" y="-1" maskUnits="userSpaceOnUse" style="mask-type:luminance"><path fill="#fff" d="M-.297 3.8 47.586-.848 48 2.697.117 7.345z"/></mask><g mask="url(#c)"><path fill="url(#d)" d="M43.517 1.86q-.764.036-1.527.075c-1.16.06-2.32.11-3.477.188a40 40 0 0 0-2.593.279c-.23.03-.466.015-.694.05-2.154.334-4.34.437-6.5.724-.977.13-1.961.206-2.934.362-2.163.345-4.35.55-6.518.867q-2.167.318-4.337.631c-1.469.212-2.939.418-4.408.631-1.181.173-2.362.347-3.541.532-.585.092-1.177.11-1.764.171-1.074.112-2.14.276-3.217.362a1 1 0 0 1-.474-.033c-.168-.063-.366.003-.552.01l-.935.032q.335-.14.703-.14c.222-.027.383-.075.387-.311 0-.025.036-.049.082-.106l-1.14.11c.178-.141.228-.154.763-.205q.384-.012.754-.109c.248-.081.45-.251.74-.285-.097-.074-.183-.04-.31-.065l1.042-.194c.055-.01.116-.006.15-.06.049-.076-.199-.21.072-.252.117-.018.121-.2.26-.24.07-.021.124-.075.091-.146-.036-.08-.121-.04-.184-.033q-.672.079-1.345.162a.82.82 0 0 1-.485-.041q.24-.04.478-.08c.172-.03.34-.069.512-.097.812-.133 1.624-.268 2.437-.395 1.352-.213 2.706-.418 4.056-.628 1.008-.156 2.011-.332 3.022-.47.723-.1 1.443-.218 2.163-.328.743-.112 1.485-.24 2.229-.349.767-.111 1.535-.228 2.303-.334.791-.11 1.584-.21 2.374-.324 1.389-.198 2.785-.336 4.18-.488 1.557-.169 3.117-.323 4.677-.47C31.317.744 32.58.644 33.841.54a64 64 0 0 1 2.568-.158c1.67-.072 3.337-.18 5.009-.238C43.31.079 45.204.059 47.097.011q.298-.008.589.055c-.286.027-.571.07-.858.08-.603.02-1.21-.014-1.81.041-.787.073-1.58-.008-2.362.09Q42 .359 41.338.362c-.023 0-.053-.004-.067.007-.33.27-.75.126-1.122.197a11 11 0 0 1-1.304.173 287 287 0 0 0-4.234.316c-1.701.142-3.403.277-5.097.48-.098.011-.213-.008-.301.096.1.08.218.046.32.04q1.902-.116 3.806-.24c.336-.022.673-.037 1.006-.075q.642-.045 1.28.034.174.016.348.006c1.586-.122 3.178-.163 4.765-.258a6 6 0 0 1 1.077-.028c.382.049.779 0 1.15.175q.395.16.821.098a1 1 0 0 1 .4.025.7.7 0 0 1-.42.095.5.5 0 0 0-.203.028c-.24.063-.246.095-.068.27.014.013.013.039.02.059zm-27.126 3.3a.955.955 0 0 0-.667-.063q-.406.088-.82.136c-1.027.112-2.043.287-3.065.43-2.675.375-5.347.771-8.033 1.088-.064.008-.144-.006-.174.055q.013.04.041.073a.24.24 0 0 0 .154.08q.045.005.09-.005c.378-.054.762-.081 1.141-.131 2.136-.285 4.26-.642 6.405-.877.103-.011.205-.037.308-.051.8-.104 1.588-.275 2.39-.377.655-.082 1.308-.184 1.96-.282a.47.47 0 0 0 .26-.084zm-1.668.189a.224.224 0 0 1-.233.024.33.33 0 0 1 .232-.024m1.657-.197a.4.4 0 0 0 .238.01 94 94 0 0 1 1.541-.224Q20 4.691 21.84 4.45l.969-.126a.76.76 0 0 0-.6-.008c-.237.087-.523.061-.787.095q-.555.036-1.096.149a1.9 1.9 0 0 1-.85.053l.533-.082q-.9.064-1.788.215c-.51.06-1.019.143-1.53.207q-.138.016-.27.056c-.09.03-.08.09-.031.151zm1.43-.282q.326-.114.675-.08-.33.095-.675.08m17.505-2.086 2.326-.226-.002-.02-2.317.224zM44.59 1.75c.042.091.13.078.208.068q.33-.015.65-.084l-.86.016zM22.03 4.255l-.777.075.003.028.778-.076zM44.588 1.75c-.36.034-.728-.021-1.074.11l.005-.001q.545.016 1.07-.11zM33.829 2.922l.468-.045-.003-.016-.474.046zm-4.134.398-.47.045.002.02.467-.046zm-4.854.586c-.192.028-.332-.01-.456.065q.24.041.456-.065m5.279-.615.403-.04a.9.9 0 0 0-.403.04m-5.495.79.392-.038c-.13-.013-.271-.09-.392.038m7.333-.998a.84.84 0 0 0-.383.085c.157-.034.257-.01.383-.085m2.705-.236a.4.4 0 0 0 .23-.036c-.08.004-.162-.016-.23.036M23.679 4.06c.037-.003.037-.024-.012-.041l-.335.054c.165-.005.257-.005.347-.013m-.15.13a.8.8 0 0 0 .373-.056c-.154.015-.246-.038-.374.057m4.476-.641a.26.26 0 0 0-.181.021c.064.004.125.019.181-.021m-1.926.2.166-.016-.166-.006zm5.076-.566q.04.015.08.01a.16.16 0 0 0 .075-.029c-.057-.006-.113-.025-.156.02zm-2.26.22a.4.4 0 0 0-.067-.001.2.2 0 0 0-.044.018l.067.004z"/></g></g></g><defs><linearGradient id="d" x1=".046" x2="47.686" y1="3.485" y2="3.485" gradientUnits="userSpaceOnUse"><stop stop-color="#0cbaf1"/><stop offset="1" stop-color="#e95ce9"/></linearGradient></defs></svg>